<svg xmlns="http://www.w3.org/2000/svg" version="1.1" xmlns:xlink="http://www.w3.org/1999/xlink" xmlns:svgjs="http://svgjs.com/svgjs" width="1440" height="560" preserveAspectRatio="none" viewBox="0 0 1440 560"><g mask="url(&quot;#SvgjsMask1009&quot;)" fill="none"><rect width="1440" height="560" x="0" y="0" fill="rgba(230, 237, 244, 1)"></rect><path d="M837.9056015028083 346.3134980913804L729.492672772581 401.5526443336569 893.1447477450847 454.72642682160756z" fill="rgba(27, 207, 209, 1)" class="triangle-float2"></path><path d="M277.033,362.809C293.358,361.866,304,347.615,312.126,333.425C320.183,319.355,327.608,302.687,319.503,288.644C311.396,274.599,293.24,272.07,277.033,272.625C261.993,273.14,247.584,278.814,239.322,291.392C230.138,305.374,226.327,323.137,234.138,337.93C242.41,353.596,259.346,363.83,277.033,362.809" fill="rgba(27, 207, 209, 1)" class="triangle-float3"></path><path d="M256.736,521.904C293.42,522.001,330.025,505.663,347.138,473.215C363.364,442.449,350.031,407.313,333.236,376.854C315.626,344.916,293.2,309.991,256.736,309.262C219.491,308.517,192.649,341.016,174.748,373.685C157.693,404.811,149.981,441.681,167.161,472.738C184.831,504.682,220.23,521.807,256.736,521.904" fill="rgba(27, 207, 209, 1)" class="triangle-float1"></path><path d="M1089.053,207.706C1105.914,207.139,1116.135,190.844,1123.952,175.893C1131.038,162.341,1134.99,146.862,1127.971,133.275C1120.392,118.603,1105.548,109.123,1089.053,108.337C1071.048,107.479,1051.937,113.503,1043.131,129.231C1034.472,144.696,1040.882,163.091,1049.834,178.388C1058.67,193.487,1071.569,208.294,1089.053,207.706" fill="rgba(27, 207, 209, 1)" class="triangle-float1"></path><path d="M978.5417306599932 448.80363418295656L1019.5762699588626 522.8319026936789 1093.604538469585 481.79736339480957 1052.5699991707156 407.76909488408717z" fill="rgba(27, 207, 209, 1)" class="triangle-float2"></path><path d="M1206.747,205.061C1233.251,205.62,1260.312,198.373,1275.209,176.445C1292.044,151.664,1298.329,118.633,1282.915,92.943C1267.827,67.796,1236.001,60.283,1206.747,62.341C1181.128,64.143,1159.867,80.198,1147.122,102.494C1134.485,124.601,1130.316,151.642,1143.114,173.657C1155.855,195.575,1181.401,204.526,1206.747,205.061" fill="rgba(27, 207, 209, 1)" class="triangle-float1"></path></g><defs><mask id="SvgjsMask1009"><rect width="1440" height="560" fill="#ffffff"></rect></mask><style>
            @keyframes float1 {
                0%{transform: translate(0, 0)}
                50%{transform: translate(-10px, 0)}
                100%{transform: translate(0, 0)}
            }

            .triangle-float1 {
                animation: float1 5s infinite;
            }

            @keyframes float2 {
                0%{transform: translate(0, 0)}
                50%{transform: translate(-5px, -5px)}
                100%{transform: translate(0, 0)}
            }

            .triangle-float2 {
                animation: float2 4s infinite;
            }

            @keyframes float3 {
                0%{transform: translate(0, 0)}
                50%{transform: translate(0, -10px)}
                100%{transform: translate(0, 0)}
            }

            .triangle-float3 {
                animation: float3 6s infinite;
            }
        </style></defs></svg>