<svg class="gridItem__media" version="1.1" id="Layer_1" xmlns="http://www.w3.org/2000/svg" xmlns:xlink="http://www.w3.org/1999/xlink" x="0px" y="0px" width="1600" height="1200" viewBox="0 0 1600 1200" style="enable-background:new 0 0 1600 1200;" xml:space="preserve" fill="none">      
<path d="M185.55 1104.41L136.47 502.8C135.219 487.479 139.474 472.214 148.47 459.75L393.37 120.83C399.915 111.769 408.702 104.563 418.869 99.9193C429.037 95.2756 440.236 93.353 451.37 94.3399L1289.71 168.25C1302.98 169.421 1315.56 174.668 1325.73 183.273C1335.9 191.877 1343.16 203.417 1346.51 216.31L1461.69 659.63C1464.52 670.528 1464.45 681.978 1461.48 692.84L1348.77 1105.91L185.55 1104.41Z" fill="#3F4249"/>
<path d="M1403.22 847.56C1403.22 847.56 1377.86 834.85 1364 867.56C1364 867.56 1357.73 836.76 1333.84 853.46C1333.84 853.46 1304.45 782.84 1239.06 836.53C1239.06 836.53 1170.7 790.42 1155.56 883.73C1155.56 883.73 1133.63 868.67 1131.06 898.49C1131.06 898.49 1097.06 879.49 1085 935.49L1395.23 931.29L1415.38 857.42C1412.21 853.171 1408.03 849.782 1403.22 847.56V847.56Z" fill="#B2B6BB"/>
<path opacity="0.1" d="M1403.22 847.56C1403.22 847.56 1377.86 834.85 1364 867.56C1364 867.56 1357.73 836.76 1333.84 853.46C1333.84 853.46 1304.45 782.84 1239.06 836.53C1239.06 836.53 1170.7 790.42 1155.56 883.73C1155.56 883.73 1133.63 868.67 1131.06 898.49C1131.06 898.49 1097.06 879.49 1085 935.49L1395.23 931.29L1415.38 857.42C1412.21 853.171 1408.03 849.782 1403.22 847.56V847.56Z" fill="black"/>
<path d="M781.11 212.58C781.728 209.962 780.107 207.339 777.489 206.721C774.871 206.103 772.248 207.725 771.63 210.342C771.013 212.96 772.634 215.583 775.251 216.201C777.869 216.819 780.492 215.197 781.11 212.58Z" fill="white"/>
<path d="M617.122 136.587C617.74 133.97 616.118 131.347 613.501 130.729C610.883 130.111 608.26 131.732 607.642 134.35C607.024 136.968 608.646 139.591 611.263 140.209C613.881 140.826 616.504 139.205 617.122 136.587Z" fill="white"/>
<path d="M688.969 405.03C689.836 401.358 687.562 397.68 683.891 396.813C680.219 395.947 676.541 398.221 675.674 401.892C674.808 405.563 677.082 409.241 680.753 410.108C684.424 410.974 688.103 408.701 688.969 405.03Z" fill="white"/>
<path d="M378.983 1038.01C379.849 1034.33 377.576 1030.66 373.904 1029.79C370.233 1028.92 366.555 1031.2 365.688 1034.87C364.822 1038.54 367.095 1042.22 370.766 1043.08C374.438 1043.95 378.116 1041.68 378.983 1038.01Z" fill="white"/>
<path d="M255.67 930.375C256.537 926.704 254.263 923.025 250.592 922.159C246.921 921.292 243.242 923.566 242.376 927.237C241.509 930.909 243.783 934.587 247.454 935.454C251.125 936.32 254.804 934.046 255.67 930.375Z" fill="white"/>
<path d="M319.926 409.422C320.793 405.751 318.519 402.072 314.848 401.206C311.176 400.339 307.498 402.613 306.631 406.284C305.765 409.955 308.039 413.634 311.71 414.501C315.381 415.367 319.06 413.093 319.926 409.422Z" fill="white"/>
<path d="M347.733 813.235C348.599 809.563 346.326 805.885 342.654 805.018C338.983 804.152 335.305 806.426 334.438 810.097C333.572 813.768 335.845 817.447 339.517 818.313C343.188 819.18 346.866 816.906 347.733 813.235Z" fill="white"/>
<path d="M223.653 737.438C224.117 735.47 222.898 733.499 220.931 733.035C218.964 732.571 216.993 733.789 216.528 735.756C216.064 737.724 217.282 739.695 219.25 740.159C221.217 740.623 223.188 739.405 223.653 737.438Z" fill="white"/>
<path d="M466.002 448.106C466.466 446.138 465.248 444.167 463.281 443.703C461.313 443.238 459.342 444.457 458.878 446.424C458.414 448.392 459.632 450.363 461.599 450.827C463.567 451.291 465.538 450.073 466.002 448.106Z" fill="white"/>
<path d="M575.254 318.479C575.718 316.511 574.5 314.54 572.533 314.076C570.565 313.612 568.594 314.83 568.13 316.797C567.665 318.765 568.884 320.736 570.851 321.2C572.819 321.664 574.79 320.446 575.254 318.479Z" fill="white"/>
<path d="M390.213 268.914C390.677 266.947 389.459 264.976 387.492 264.511C385.524 264.047 383.553 265.265 383.089 267.233C382.624 269.2 383.843 271.171 385.81 271.636C387.777 272.1 389.749 270.882 390.213 268.914Z" fill="white"/>
<path d="M965.973 230.199C966.437 228.232 965.219 226.261 963.251 225.797C961.284 225.332 959.313 226.551 958.849 228.518C958.384 230.485 959.603 232.456 961.57 232.921C963.537 233.385 965.508 232.167 965.973 230.199Z" fill="white"/>
<path d="M227.369 521.205C227.834 519.238 226.615 517.267 224.648 516.802C222.681 516.338 220.709 517.556 220.245 519.524C219.781 521.491 220.999 523.462 222.966 523.927C224.934 524.391 226.905 523.173 227.369 521.205Z" fill="white"/>
<path d="M488.18 704.897C488.644 702.929 487.426 700.958 485.458 700.494C483.491 700.03 481.52 701.248 481.056 703.215C480.591 705.183 481.81 707.154 483.777 707.618C485.744 708.082 487.716 706.864 488.18 704.897Z" fill="white"/>
<path d="M369.19 693.899C369.654 691.931 368.436 689.96 366.468 689.496C364.501 689.031 362.53 690.25 362.065 692.217C361.601 694.184 362.819 696.156 364.787 696.62C366.754 697.084 368.725 695.866 369.19 693.899Z" fill="white"/>
<path d="M1118.79 173.643C1119.26 171.675 1118.04 169.704 1116.07 169.24C1114.1 168.776 1112.13 169.994 1111.67 171.961C1111.2 173.929 1112.42 175.9 1114.39 176.364C1116.36 176.829 1118.33 175.61 1118.79 173.643Z" fill="white"/>
<path d="M1400.92 733.67C1401.39 731.703 1400.17 729.732 1398.2 729.267C1396.23 728.803 1394.26 730.021 1393.8 731.989C1393.33 733.956 1394.55 735.927 1396.52 736.392C1398.49 736.856 1400.46 735.637 1400.92 733.67Z" fill="white"/>
<path d="M1418.31 603.006C1418.78 601.039 1417.56 599.068 1415.59 598.603C1413.63 598.139 1411.65 599.357 1411.19 601.325C1410.73 603.292 1411.94 605.263 1413.91 605.727C1415.88 606.192 1417.85 604.973 1418.31 603.006Z" fill="white"/>
<path d="M542.895 220.053C543.795 216.237 541.432 212.413 537.615 211.512C533.799 210.611 529.975 212.975 529.074 216.791C528.174 220.607 530.537 224.431 534.354 225.332C538.17 226.233 541.994 223.869 542.895 220.053Z" fill="white"/>
<path d="M1006.27 478.196C1006.73 476.228 1005.51 474.257 1003.55 473.793C1001.58 473.328 999.608 474.547 999.143 476.514C998.679 478.481 999.898 480.453 1001.86 480.917C1003.83 481.381 1005.8 480.163 1006.27 478.196Z" fill="white"/>
<path d="M1198.58 757.967C1199.05 756 1197.83 754.029 1195.86 753.564C1193.89 753.1 1191.92 754.318 1191.46 756.285C1190.99 758.253 1192.21 760.224 1194.18 760.688C1196.15 761.153 1198.12 759.934 1198.58 757.967Z" fill="white"/>
<path d="M631.512 462.795C631.976 460.828 630.758 458.857 628.79 458.392C626.823 457.928 624.852 459.146 624.388 461.114C623.923 463.081 625.142 465.052 627.109 465.517C629.076 465.981 631.048 464.762 631.512 462.795Z" fill="white"/>
<path d="M631.858 929.52C632.322 927.552 631.103 925.581 629.136 925.117C627.169 924.653 625.198 925.871 624.733 927.838C624.269 929.806 625.487 931.777 627.455 932.241C629.422 932.705 631.393 931.487 631.858 929.52Z" fill="white"/>
<path d="M351.863 921.514C352.328 919.547 351.109 917.575 349.142 917.111C347.175 916.647 345.204 917.865 344.739 919.832C344.275 921.8 345.493 923.771 347.461 924.235C349.428 924.7 351.399 923.481 351.863 921.514Z" fill="white"/>
<path d="M696.43 789.215C696.894 787.248 695.676 785.276 693.708 784.812C691.741 784.348 689.77 785.566 689.306 787.534C688.841 789.501 690.06 791.472 692.027 791.936C693.994 792.401 695.966 791.182 696.43 789.215Z" fill="white"/>
<path d="M469.434 598.221C469.898 596.254 468.68 594.282 466.712 593.818C464.745 593.354 462.774 594.572 462.309 596.539C461.845 598.507 463.064 600.478 465.031 600.942C466.998 601.407 468.969 600.188 469.434 598.221Z" fill="white"/>
<path d="M810.962 474.912C811.579 472.294 809.958 469.671 807.34 469.053C804.723 468.435 802.1 470.057 801.482 472.674C800.864 475.292 802.485 477.915 805.103 478.533C807.721 479.151 810.344 477.529 810.962 474.912Z" fill="white"/>
<path d="M1243.84 667.978C1244.46 665.36 1242.84 662.737 1240.22 662.12C1237.6 661.502 1234.98 663.123 1234.36 665.741C1233.74 668.358 1235.36 670.981 1237.98 671.599C1240.6 672.217 1243.22 670.596 1243.84 667.978Z" fill="white"/>
<path d="M1108.08 689.242C1108.7 686.624 1107.08 684.001 1104.46 683.383C1101.85 682.765 1099.22 684.387 1098.61 687.004C1097.99 689.622 1099.61 692.245 1102.23 692.863C1104.84 693.481 1107.47 691.859 1108.08 689.242Z" fill="white"/>
<path d="M740.831 588.951C741.448 586.333 739.827 583.71 737.21 583.092C734.592 582.474 731.969 584.096 731.351 586.713C730.733 589.331 732.354 591.954 734.972 592.572C737.59 593.19 740.213 591.568 740.831 588.951Z" fill="white"/>
<path d="M632.833 591.953C633.45 589.335 631.829 586.712 629.212 586.094C626.594 585.476 623.971 587.098 623.353 589.715C622.735 592.333 624.356 594.956 626.974 595.574C629.592 596.192 632.215 594.57 632.833 591.953Z" fill="white"/>
<path d="M480.799 895.896C481.417 893.278 479.796 890.655 477.178 890.038C474.561 889.42 471.938 891.041 471.32 893.659C470.702 896.276 472.323 898.899 474.941 899.517C477.559 900.135 480.182 898.514 480.799 895.896Z" fill="white"/>
<path d="M540.829 754.531C541.447 751.913 539.825 749.29 537.208 748.672C534.59 748.055 531.967 749.676 531.349 752.293C530.731 754.911 532.353 757.534 534.97 758.152C537.588 758.77 540.211 757.149 540.829 754.531Z" fill="white"/>
<path d="M816.153 667.539C816.771 664.921 815.15 662.298 812.532 661.68C809.914 661.062 807.291 662.684 806.673 665.301C806.056 667.919 807.677 670.542 810.294 671.16C812.912 671.778 815.535 670.156 816.153 667.539Z" fill="white"/>
<path d="M963.151 615.535C963.769 612.917 962.148 610.294 959.53 609.676C956.912 609.058 954.289 610.68 953.671 613.297C953.054 615.915 954.675 618.538 957.293 619.156C959.91 619.774 962.533 618.152 963.151 615.535Z" fill="white"/>
<path d="M884.157 840.527C884.775 837.909 883.153 835.286 880.536 834.668C877.918 834.051 875.295 835.672 874.677 838.29C874.059 840.907 875.681 843.53 878.298 844.148C880.916 844.766 883.539 843.145 884.157 840.527Z" fill="white"/>
<g opacity="0.7">
<path opacity="0.7" d="M770.569 295.391L699.889 272.361L700.109 271.641L771.429 292.611L770.569 295.391Z" fill="#DADDDF"/>
</g>
<path d="M776.019 295.796C776.674 292.57 774.591 289.424 771.365 288.768C768.14 288.112 764.993 290.196 764.338 293.421C763.682 296.647 765.765 299.793 768.991 300.449C772.217 301.105 775.363 299.021 776.019 295.796Z" fill="white"/>
<g opacity="0.7">
<path opacity="0.7" d="M491.569 529.391L420.889 506.361L421.109 505.641L492.429 526.611L491.569 529.391Z" fill="#DADDDF"/>
</g>
<path d="M497.013 529.796C497.669 526.57 495.585 523.424 492.359 522.768C489.134 522.112 485.987 524.196 485.332 527.421C484.676 530.647 486.759 533.793 489.985 534.449C493.211 535.105 496.357 533.021 497.013 529.796Z" fill="white"/>
<g opacity="0.7">
<path opacity="0.7" d="M896.569 553.391L825.889 530.361L826.109 529.641L897.429 550.611L896.569 553.391Z" fill="#DADDDF"/>
</g>
<path d="M902.027 553.803C902.682 550.578 900.599 547.431 897.373 546.776C894.147 546.12 891.001 548.203 890.345 551.429C889.69 554.655 891.773 557.801 894.999 558.457C898.224 559.112 901.371 557.029 902.027 553.803Z" fill="white"/>
<path d="M1178.91 927.929C1152.15 927.509 1125.4 926.549 1098.69 924.789C962.841 915.789 810.571 943.669 810.571 943.669C637.571 978.789 454.121 1081.76 425.891 1104.82L1348.66 1105.91H1348.75L1396.75 929.969L1178.91 927.929Z" fill="#DADDDF"/>
<path opacity="0.1" d="M1095.52 977C1086.68 972.39 1082.52 962.37 1084.73 952.65C1084.91 951.845 1085 951.024 1085 950.2C1085 931.33 1036.2 916.02 976.001 916.02C915.801 916.02 867.001 931.33 867.001 950.2C867.001 950.5 867.001 950.79 867.001 951.08C867.771 960.62 862.841 969.73 854.001 973.37C825.341 985.12 809.501 1006.6 828.001 1016.02C881.001 1043.02 882.081 1016.02 971.001 1016.02C1059.92 1016.02 1056 1036.02 1116 1012.02C1129.53 1006.59 1117.66 988.54 1095.52 977Z" fill="black"/>
<path d="M895.061 920.859V856.109C895.066 850.611 897.194 845.327 901.001 841.359C902.992 839.279 905.384 837.624 908.033 836.494C910.681 835.363 913.531 834.78 916.411 834.779H917.301L1044.71 849.589L1037.25 910.859L895.061 920.859Z" fill="#21252B"/>
<path d="M950.6 762L934.55 766.72C930.723 767.846 927.2 769.823 924.245 772.501C921.289 775.18 918.976 778.492 917.48 782.19L910.61 799.19L935.05 810.86L903 961C903 961 915.61 979.17 956.15 979.17C956.15 979.17 981.32 979.38 1002.49 975.47C1010.8 973.969 1018.4 969.782 1024.1 963.55C1029.79 957.3 1036.1 947.64 1039.73 933.35L1037 910.58C1037 910.58 1028.67 901.7 1022.57 899.48C1022.57 899.48 1044.05 852 1059.05 805L1082.65 803.84L1078.65 784.4C1077.67 779.874 1075.51 775.685 1072.41 772.251C1069.3 768.817 1065.35 766.258 1060.94 764.83L1041.94 756.75L950.6 762Z" class="change-color-in-svg" fill="#4D61FC" style="fill: rgb(77, 97, 252);"/>
<path opacity="0.2" d="M950.6 762L934.55 766.72C930.723 767.846 927.2 769.823 924.245 772.501C921.289 775.18 918.976 778.492 917.48 782.19L910.61 799.19L935.05 810.86L903 961C903 961 915.61 979.17 956.15 979.17C956.15 979.17 981.32 979.38 1002.49 975.47C1010.8 973.969 1018.4 969.782 1024.1 963.55C1029.79 957.3 1036.1 947.64 1039.73 933.35L1037 910.58C1037 910.58 1028.67 901.7 1022.57 899.48C1022.57 899.48 1040.05 863 1059.05 805L1082.65 803.84L1078.65 784.4C1077.67 779.874 1075.51 775.685 1072.41 772.251C1069.3 768.817 1065.35 766.258 1060.94 764.83L1041.94 756.75L950.6 762Z" fill="white"/>
<path opacity="0.15" d="M1022.13 965.55C977.92 975.67 951.41 973.97 935.67 969.16C932.438 968.148 929.45 966.481 926.893 964.261C924.335 962.041 922.264 959.317 920.808 956.26C919.352 953.202 918.543 949.877 918.431 946.492C918.32 943.108 918.908 939.737 920.16 936.59L924.81 924.78C925.72 922.48 926.74 920.22 927.74 917.95C933.62 904.71 934.5 884.5 934.5 884.5C934.5 871.5 937 852 937 852V811L934.9 811.57L903 961C903 961 915.61 979.17 956.15 979.17C956.15 979.17 981.32 979.38 1002.49 975.47C1009.86 974.129 1016.68 970.683 1022.13 965.55V965.55Z" fill="black"/>
<path opacity="0.2" d="M1022.52 899.48L1015.86 922.55C1014.5 927.207 1014.77 932.189 1016.63 936.67C1019.2 942.78 1024.22 950 1033.57 949.8C1033.57 949.8 1039.18 938.91 1039.73 933.35L1037 910.581C1037 910.581 1029.74 902.25 1022.52 899.48Z" fill="black"/>
<path d="M937 812L912 800C908.07 808.77 908.26 875.78 899.85 897.13C894.37 912.13 895.4 911.81 887.78 954.68C886.48 962.01 884.78 966.93 884 970.19H883.17L865.36 975.56C863.944 975.985 862.633 976.7 861.51 977.66L851.85 985.88L849.32 987C848.688 987.286 848.13 987.713 847.689 988.249C847.249 988.785 846.938 989.415 846.78 990.09C845.514 995.528 843.286 1000.7 840.2 1005.35C840.1 1005.49 840.035 1005.66 840.009 1005.83C839.983 1006.01 839.997 1006.18 840.05 1006.35C840.31 1007.17 841.13 1008.52 843.65 1007.94L842.96 1009.13C842.823 1009.37 842.76 1009.64 842.778 1009.91C842.795 1010.18 842.894 1010.44 843.06 1010.66C843.8 1011.66 845.47 1012.86 848.6 1010.66C848.6 1010.66 855.72 1000.05 857.32 996.96L859.07 996.26L856.53 1009.79C856.467 1010.21 856.529 1010.65 856.71 1011.04C856.89 1011.43 857.181 1011.75 857.545 1011.98C857.91 1012.21 858.333 1012.32 858.762 1012.31C859.191 1012.3 859.607 1012.16 859.96 1011.92C860.752 1011.38 861.313 1010.56 861.53 1009.62L864.53 997.12L866.84 995.78L864.84 1009.23C864.783 1009.6 864.837 1009.98 864.995 1010.32C865.153 1010.66 865.407 1010.95 865.726 1011.15C866.046 1011.35 866.416 1011.45 866.792 1011.44C867.168 1011.43 867.532 1011.31 867.84 1011.09C868.892 1010.37 869.662 1009.31 870.02 1008.09L872.91 997.83L884.45 991.13C884.45 991.13 896.15 985.81 897.91 976.13H898C917 928.5 939.73 865.21 937 812Z" fill="#FC9D9D"/>
<path opacity="0.15" d="M857.32 996.87L859.49 994.65L859.07 996.17L857.32 996.87Z" fill="black"/>
<path opacity="0.15" d="M859.59 994.94C859.843 994.043 860.33 993.229 861 992.58C863 991.37 865.71 989.71 869.28 987.16" stroke="black" stroke-width="0.6" stroke-miterlimit="10" stroke-linecap="round"/>
<path opacity="0.15" d="M868 995C869.932 993.098 872.027 991.368 874.26 989.83" stroke="black" stroke-width="0.6" stroke-miterlimit="10" stroke-linecap="round"/>
<path opacity="0.15" d="M844.73 1006C844.73 1006 850.73 996.589 852.44 991.579C852.674 990.898 853.156 990.33 853.79 989.989L864.331 984.449" stroke="black" stroke-width="0.6" stroke-miterlimit="10" stroke-linecap="round"/>
<path opacity="0.15" d="M858.82 982.43L853.01 985.18" stroke="black" stroke-width="0.6" stroke-miterlimit="10" stroke-linecap="round"/>
<path d="M1104.17 999.629C1100.5 995.425 1097.6 990.6 1095.62 985.379C1095.38 984.73 1094.98 984.147 1094.48 983.675C1093.97 983.203 1093.36 982.856 1092.69 982.659L1090.03 981.869L1079.37 974.999C1078.13 974.198 1076.73 973.663 1075.27 973.429L1060.27 971.019C1060.19 960.619 1060.89 950.228 1062.34 939.929C1066.52 908.269 1065.23 893.409 1064.06 887.299C1063.28 883.315 1062.87 879.269 1062.82 875.209C1062.82 874.399 1062.82 873.619 1062.82 872.859C1062.83 866.145 1063.88 859.473 1065.93 853.079L1080.39 803.859L1059.13 805.059L1036 867.999C1033.97 875.36 1033.48 883.062 1034.57 890.619C1034.78 892.409 1034.95 894.199 1035.1 895.989L1041.31 968.539C1041.45 970.851 1041.83 973.14 1042.46 975.369C1043.59 986.849 1058.39 991.369 1058.39 991.369L1070.73 996.469L1074.96 1006.26C1075.47 1007.43 1076.38 1008.39 1077.52 1008.97C1077.9 1009.16 1078.33 1009.22 1078.75 1009.14C1079.17 1009.06 1079.55 1008.84 1079.83 1008.52C1080.03 1008.28 1080.18 1007.99 1080.25 1007.68C1080.31 1007.37 1080.31 1007.05 1080.23 1006.74L1076.51 993.659L1078.98 994.659L1083.59 1006.66C1083.93 1007.56 1084.6 1008.3 1085.46 1008.73C1085.84 1008.92 1086.27 1009 1086.7 1008.95C1087.12 1008.91 1087.53 1008.74 1087.86 1008.46C1088.19 1008.19 1088.43 1007.83 1088.56 1007.42C1088.68 1007.01 1088.69 1006.57 1088.57 1006.16L1084.25 993.089L1086.08 993.549C1088.08 996.399 1096.54 1005.97 1096.54 1005.97C1099.94 1007.77 1101.43 1006.35 1102.04 1005.28C1102.18 1005.04 1102.24 1004.77 1102.22 1004.49C1102.2 1004.22 1102.1 1003.96 1101.93 1003.74L1101.09 1002.65C1103.67 1002.89 1104.3 1001.45 1104.45 1000.65C1104.49 1000.47 1104.49 1000.28 1104.44 1000.1C1104.39 999.926 1104.3 999.763 1104.17 999.629Z" fill="#FC9D9D"/>
<path opacity="0.15" d="M1086.08 993.519L1083.63 991.609L1084.25 993.059L1086.08 993.519Z" fill="black"/>
<path opacity="0.15" d="M1083.57 991.91C1083.2 991.053 1082.61 990.308 1081.86 989.75C1079.69 988.83 1076.86 987.54 1072.94 985.49" stroke="black" stroke-width="0.6" stroke-miterlimit="10" stroke-linecap="round"/>
<path opacity="0.15" d="M1075.28 993.099C1073.11 991.475 1070.81 990.04 1068.39 988.809" stroke="black" stroke-width="0.6" stroke-miterlimit="10" stroke-linecap="round"/>
<path opacity="0.15" d="M1099.77 1000.92C1099.77 1000.92 1092.61 992.39 1090.21 987.66C1089.89 987.016 1089.34 986.516 1088.67 986.26L1077.49 982.17" stroke="black" stroke-width="0.6" stroke-miterlimit="10" stroke-linecap="round"/>
<path opacity="0.15" d="M1082.67 979.41L1088.8 981.36" stroke="black" stroke-width="0.6" stroke-miterlimit="10" stroke-linecap="round"/>
<path opacity="0.15" d="M1086.08 993.519L1083.63 991.609L1084.25 993.059L1086.08 993.519Z" fill="black"/>
<path opacity="0.15" d="M1083.57 991.91C1083.2 991.053 1082.61 990.308 1081.86 989.75C1079.69 988.83 1076.86 987.54 1072.94 985.49" stroke="black" stroke-width="0.6" stroke-miterlimit="10" stroke-linecap="round"/>
<path opacity="0.15" d="M1075.28 993.099C1073.11 991.475 1070.81 990.04 1068.39 988.809" stroke="black" stroke-width="0.6" stroke-miterlimit="10" stroke-linecap="round"/>
<path opacity="0.15" d="M1099.77 1000.92C1099.77 1000.92 1092.61 992.39 1090.21 987.66C1089.89 987.016 1089.34 986.516 1088.67 986.26L1077.49 982.17" stroke="black" stroke-width="0.6" stroke-miterlimit="10" stroke-linecap="round"/>
<path opacity="0.15" d="M1082.67 979.41L1088.8 981.36" stroke="black" stroke-width="0.6" stroke-miterlimit="10" stroke-linecap="round"/>
<path opacity="0.15" d="M1056 989.999C1051.54 986.309 1046.45 977.769 1046 971.999L1039.33 889.939C1037.8 874.639 1047.11 841.109 1053.33 820.939L1036 867.999C1033.97 875.36 1033.48 883.062 1034.57 890.619C1034.78 892.409 1034.95 894.199 1035.1 895.989L1041.31 968.539C1041.45 970.851 1041.83 973.14 1042.46 975.369C1043.32 984.079 1052.04 988.749 1056.2 990.499L1056 989.999Z" fill="black"/>
<path d="M974.459 664C973.589 664.291 972.741 664.642 971.919 665.05C967.129 666.94 948.489 676.9 956.799 715.53C956.799 715.53 961.699 734.24 953.999 748.19C950.66 754.145 948.297 760.597 946.999 767.3C945.399 775.93 944.459 786.98 947.319 796.12C949.05 801.823 950.078 807.717 950.379 813.67C950.969 823.47 954.199 838.19 967.009 848.96C974.202 854.928 983.059 858.537 992.375 859.295C1001.69 860.054 1011.01 857.926 1019.08 853.2C1031.78 845.84 1047.42 833.34 1054.92 813.93C1055.45 812.566 1056.05 811.231 1056.72 809.93C1060.05 803.43 1069.72 779.27 1048.81 749.6C1047.07 747.184 1045.16 744.898 1043.09 742.76C1040.56 740.11 1035.09 732.48 1029.5 712.23C1028.64 709.14 1027.87 706.03 1027.16 702.9C1024.91 693.21 1014 654 974.459 664Z" fill="#21252B"/>
<path d="M1035.07 420.269C1034.93 421.028 1034.76 421.779 1034.54 422.519C1035.09 428.389 987.88 425.239 987.88 425.239C987.88 425.239 975.26 436.589 968.95 425.869C956.34 430.869 885.71 433.439 856.07 427.769C830.85 431.549 789.22 425.239 769.07 424.609C748.92 423.979 748.25 418.299 759.61 415.789C759.48 414.489 760.52 412.579 762.61 410.539C770.61 402.619 793.77 392.619 823.33 407.919C818.33 391.239 839.1 373.529 862.43 382.359C861.8 372.889 871.26 374.159 871.26 374.159C871.26 374.159 867.47 332.539 901.53 332.539C935.59 332.539 939.36 390.539 939.36 390.539C939.36 390.539 941.89 367.249 970.9 365.359C999.91 363.469 999.9 391.849 999.9 391.849C999.9 391.849 1039.72 395.379 1035.07 420.269Z" class="change-color-in-svg" fill="#4D61FC" style="fill: rgb(77, 97, 252);"/>
<path opacity="0.6" d="M1035.07 420.269C1034.93 421.028 1034.76 421.779 1034.54 422.519C1035.09 428.389 987.88 425.239 987.88 425.239C987.88 425.239 975.26 436.589 968.95 425.869C956.34 430.869 885.71 433.439 856.07 427.769C830.85 431.549 789.22 425.239 769.07 424.609C748.92 423.979 748.25 418.299 759.61 415.789C759.48 414.489 760.52 412.579 762.61 410.539C770.61 402.619 793.77 392.619 823.33 407.919C818.33 391.239 839.1 373.529 862.43 382.359C861.8 372.889 871.26 374.159 871.26 374.159C871.26 374.159 867.47 332.539 901.53 332.539C935.59 332.539 939.36 390.539 939.36 390.539C939.36 390.539 941.89 367.249 970.9 365.359C999.91 363.469 999.9 391.849 999.9 391.849C999.9 391.849 1039.72 395.379 1035.07 420.269Z" fill="white"/>
<path opacity="0.15" d="M1035.07 420.27C1034.93 421.028 1034.76 421.779 1034.54 422.52C1035.09 428.39 987.88 425.24 987.88 425.24C987.88 425.24 975.26 436.59 968.95 425.87C956.34 430.87 885.71 433.44 856.07 427.77C830.85 431.55 789.22 425.24 769.07 424.61C748.92 423.98 748.25 418.3 759.61 415.79C759.48 414.49 760.52 412.58 762.61 410.54C765.83 411.81 768.46 414.68 768.61 418.17C771.695 417.025 775.032 416.734 778.269 417.328C781.505 417.921 784.522 419.376 787 421.54C792.06 416.1 800.91 419.17 808 421.43C815.05 423.683 822.433 424.717 829.83 424.49C831.462 424.547 833.082 424.203 834.55 423.49C837.77 421.64 838.19 417.28 838.8 413.6C839.56 409.05 841.31 404.47 844.73 401.36C848.15 398.25 853.49 396.98 857.54 399.2C859.54 400.3 861.09 402.12 863.16 403.05C864.64 403.72 866.33 403.9 867.74 404.71C871.33 406.78 871.6 411.77 871.44 415.91C873.392 415.217 875.484 415.015 877.532 415.324C879.58 415.633 881.52 416.442 883.18 417.68C878.73 407.21 885.07 395.4 892.04 386.4C895.18 382.4 898.68 378.3 903.39 376.24C910.53 373.1 919.21 375.35 925.26 380.24C931.31 385.13 935.09 392.34 937.77 399.67C939.586 398.829 941.621 398.586 943.584 398.976C945.546 399.366 947.334 400.369 948.69 401.84C961.61 397.27 977.27 402.08 985.4 413.11C1002.29 409.832 1019.79 412.355 1035.07 420.27V420.27Z" class="change-color-in-svg" fill="#4D61FC" style="fill: rgb(77, 97, 252);"/>
<path d="M1399.22 519.001L1385.13 536.761C1385.13 536.761 1403.6 538.331 1426.6 527.631L1423.27 514.811C1414.7 518.351 1406.36 520.201 1399.22 519.001Z" fill="#B2B6BB"/>
<path opacity="0.2" d="M1403.56 518.21L1394.9 529.35C1405.35 528.829 1415.6 526.307 1425.1 521.92L1423.29 514.92C1409.44 520.38 1403.56 518.21 1403.56 518.21Z" fill="black"/>
<path d="M1257.7 462.32C1257.7 462.32 1252.81 534.07 1227 551L1228.56 573.61C1228.56 573.61 1274.82 538.07 1257.7 462.32Z" fill="#B2B6BB"/>
<path opacity="0.2" d="M1257.7 462.32C1257.7 462.32 1265.85 526.88 1230.7 561.53L1229.18 549C1229.18 549 1250.62 538.89 1257.7 462.32Z" fill="black"/>
<path d="M1321.48 576.471L1311 616.601C1311 616.601 1387.53 590.211 1416.79 490.091L1411.89 471.211C1393.14 508.301 1358.32 566.751 1321.48 576.471Z" fill="#B2B6BB"/>
<path opacity="0.2" d="M1325.77 574.159L1321.88 596.909C1372.12 572.259 1400.21 518.049 1414.31 480.369L1411.9 471.109C1362.31 569.999 1325.77 574.159 1325.77 574.159Z" fill="black"/>
<path d="M1189.88 474.5C1189.88 474.5 1240.09 596.22 1294.75 610.64L1305.21 650.77C1305.21 650.77 1204.19 616 1189.88 474.5Z" fill="#B2B6BB"/>
<path opacity="0.2" d="M1189.88 474.5C1189.88 474.5 1213.28 591.28 1294.36 631.08L1294.93 610.69C1294.93 610.69 1246.68 603.34 1189.88 474.5Z" fill="black"/>
<path d="M1300.58 388.109L1286.66 928.629L1341.42 928.569L1317.88 387.539L1300.58 388.109Z" fill="#B2B6BB"/>
<path opacity="0.2" d="M1308.28 387.959L1312.6 928.999L1341.42 928.569L1317.88 387.539L1308.28 387.959Z" fill="black"/>
<path d="M1297.11 167.72L1232.29 162C1220.93 169.198 1210.8 178.18 1202.29 188.6C1194.61 187.104 1186.8 186.347 1178.97 186.34C1120.28 186.34 1072.71 226.52 1072.71 276C1072.71 317.87 1106.63 352.89 1152.51 362.83V365.71H1384.51L1343.2 206.71C1340.48 196.249 1334.59 186.886 1326.34 179.906C1318.09 172.925 1307.88 168.668 1297.11 167.72V167.72Z" class="change-color-in-svg" fill="#4D61FC" style="fill: rgb(77, 97, 252);"/>
<path opacity="0.2" d="M1240.42 336.329C1175.89 336.329 1117.42 320.149 1074.9 293.949C1083.01 327.609 1113.36 354.349 1152.5 362.829V365.709H1384.5L1370.5 311.899C1333.27 327.329 1288.54 336.329 1240.42 336.329Z" fill="black"/>
<path d="M1356 349.05C1350.43 347.964 1344.77 347.418 1339.09 347.42C1296.5 347.42 1262.01 376.56 1262.01 412.42C1262.01 442.78 1286.61 468.19 1319.9 475.42V477.51H1413.62L1375.62 331.18C1368.24 336.139 1361.63 342.16 1356 349.05V349.05Z" class="change-color-in-svg" fill="#4D61FC" style="fill: rgb(77, 97, 252);"/>
<path opacity="0.2" d="M1384 456C1337.2 456 1294.81 444.25 1264 425.25C1269.88 449.66 1291.89 469.07 1320.28 475.25V477.33H1413.58L1407.78 455C1399.97 455.627 1392.04 455.96 1384 456Z" fill="black"/>
<path d="M1294.57 367.311C1289.12 367.334 1283.69 367.901 1278.36 369.001C1263.92 338.901 1228.97 317.631 1188.12 317.631C1154.77 317.631 1125.28 331.851 1107.75 353.521C1102.18 352.432 1096.52 351.88 1090.84 351.871C1048.28 351.871 1013.77 381.021 1013.77 416.921C1013.77 447.291 1038.36 472.681 1071.65 479.921V480.391L1294.57 482.001C1332.1 482.001 1362.57 456.361 1362.57 424.681C1362.57 393.001 1332.1 367.311 1294.57 367.311Z" class="change-color-in-svg" fill="#4D61FC" style="fill: rgb(77, 97, 252);"/>
<path opacity="0.2" d="M1304.75 368C1293.9 420.25 1222.26 460.65 1135.42 460.65C1088.61 460.65 1046.23 448.91 1015.42 429.9C1021.29 454.31 1043.3 473.71 1071.69 479.85V480.32L1294.57 482C1332.1 482 1362.57 456.36 1362.57 424.68C1362.53 395.89 1337.45 372.18 1304.75 368Z" fill="black"/>
<path d="M1084.46 573.279C1084.46 573.279 1206.59 608.589 1234.54 595.409L1249.85 612.939C1249.85 612.939 1155.23 624.999 1084.46 573.279Z" fill="#B2B6BB"/>
<path opacity="0.2" d="M1084.46 573.279C1084.46 573.279 1163.28 609.919 1237.77 603.879L1234.04 595.879C1234.04 595.879 1212.6 608.909 1084.46 573.279Z" fill="black"/>
<path d="M187.209 653.36C187.349 654.12 187.539 654.91 187.769 655.71C187.189 661.82 236.359 658.54 236.359 658.54C236.359 658.54 249.499 670.36 256.069 659.2C269.199 664.45 342.759 667.07 373.629 661.2C399.889 665.14 443.239 658.57 464.249 657.91C485.259 657.25 485.929 651.35 474.099 648.73C474.239 647.38 473.099 645.39 471.009 643.26C462.719 635.01 438.559 624.6 407.769 640.53C413.029 623.16 391.349 604.72 367.059 613.91C367.709 604.06 357.859 605.38 357.859 605.38C357.859 605.38 361.809 562 326.339 562C290.869 562 286.939 622.37 286.939 622.37C286.939 622.37 284.309 598.12 254.089 596.15C223.869 594.18 223.889 623.74 223.889 623.74C223.889 623.74 182.379 627.45 187.209 653.36Z" class="change-color-in-svg" fill="#4D61FC" style="fill: rgb(77, 97, 252);"/>
<path opacity="0.6" d="M187.209 653.36C187.349 654.12 187.539 654.91 187.769 655.71C187.189 661.82 236.359 658.54 236.359 658.54C236.359 658.54 249.499 670.36 256.069 659.2C269.199 664.45 342.759 667.07 373.629 661.2C399.889 665.14 443.239 658.57 464.249 657.91C485.259 657.25 485.929 651.35 474.099 648.73C474.239 647.38 473.099 645.39 471.009 643.26C462.719 635.01 438.559 624.6 407.769 640.53C413.029 623.16 391.349 604.72 367.059 613.91C367.709 604.06 357.859 605.38 357.859 605.38C357.859 605.38 361.809 562 326.339 562C290.869 562 286.939 622.37 286.939 622.37C286.939 622.37 284.309 598.12 254.089 596.15C223.869 594.18 223.889 623.74 223.889 623.74C223.889 623.74 182.379 627.45 187.209 653.36Z" fill="white"/>
<path opacity="0.15" d="M187.209 653.36C187.349 654.12 187.539 654.91 187.769 655.71C187.189 661.82 236.359 658.54 236.359 658.54C236.359 658.54 249.499 670.36 256.069 659.2C269.199 664.45 342.759 667.07 373.629 661.2C399.889 665.14 443.239 658.57 464.249 657.91C485.259 657.25 485.929 651.35 474.099 648.73C474.239 647.38 473.099 645.39 471.009 643.26C467.659 644.58 464.919 647.57 464.769 651.21C461.545 650.001 458.054 649.688 454.666 650.304C451.278 650.92 448.121 652.443 445.529 654.71C440.269 649.05 431.059 652.24 423.699 654.6C416.366 656.931 408.69 658 400.999 657.76C399.302 657.832 397.613 657.488 396.079 656.76C392.719 654.83 392.289 650.29 391.659 646.46C390.859 641.72 389.039 636.95 385.479 633.71C381.919 630.47 376.349 629.15 372.139 631.46C370.049 632.6 368.439 634.46 366.279 635.46C364.739 636.15 362.979 636.34 361.509 637.18C357.779 639.34 357.509 644.53 357.659 648.85C355.626 648.128 353.447 647.919 351.314 648.24C349.181 648.561 347.16 649.402 345.429 650.69C350.069 639.78 343.429 627.49 336.209 618.12C332.929 613.9 329.289 609.67 324.389 607.53C316.959 604.26 307.909 606.6 301.609 611.73C295.309 616.86 291.369 624.33 288.609 631.96C286.716 631.087 284.596 630.835 282.552 631.241C280.508 631.647 278.644 632.69 277.229 634.22C263.769 629.46 247.469 634.47 239.009 645.96C221.402 642.515 203.147 645.123 187.209 653.36V653.36Z" class="change-color-in-svg" fill="#4D61FC" style="fill: rgb(77, 97, 252);"/>
<path d="M611.85 378.001C569.85 409.851 512.28 388.401 493.71 351.381C475.64 318.441 482.91 270.171 518.79 246.801C513.79 255.201 507.94 265.951 506.53 272.621C506.304 273.634 506.114 274.614 505.96 275.561C496.78 314.261 524.51 373.311 578.96 380.751C581.809 381.142 584.676 381.376 587.55 381.451C594 381.721 603.48 380.191 611.85 378.001Z" fill="white"/>
<path d="M612 377.78C600.601 395.596 583.075 408.625 562.73 414.408C542.385 420.19 520.626 418.327 501.56 409.17L500.66 408.73C499.647 408.23 498.647 407.72 497.66 407.2L496.71 406.68C495.48 405.99 494.28 405.28 493.09 404.54L492.31 404.04L491.69 403.64L490.82 403.07C489.96 402.5 489.11 401.91 488.29 401.31C488.218 401.251 488.141 401.197 488.06 401.15C487.79 400.96 487.53 400.76 487.28 400.57L486.5 399.99C485.28 399.06 484.1 398.12 482.97 397.14C482.73 396.95 482.48 396.75 482.24 396.52C465.59 382.38 454.85 360.25 453.11 342.52V342.24C451.271 328.149 452.932 313.822 457.944 300.525C462.957 287.228 471.167 275.37 481.85 266L481.95 265.91C487.73 260.802 494.184 256.512 501.13 253.16C506.126 250.764 511.331 248.832 516.68 247.39C517.29 247.22 517.9 247.07 518.51 246.92C471.63 280.11 473.27 351.72 522.87 381.3C523.03 381.41 523.19 381.5 523.36 381.6C524.15 382.08 524.96 382.55 525.8 383.02C556.85 399.08 588.92 394.61 612 377.78Z" fill="#F4F4F4"/>
<path d="M636.399 854.321C636.399 854.321 646.079 855.961 690.559 854.821C702.559 863.821 754.739 858.111 775.299 855.711C799.059 861.161 810.809 846.931 800.299 839.251C797.049 836.871 791.669 835.121 783.859 834.761C784.369 804.181 723.189 794.151 706.139 838.761C697.139 829.761 678.299 830.561 677.059 842.761C659.649 838.821 645.899 843.271 639.609 847.941C636.259 850.421 634.999 852.941 636.399 854.321Z" class="change-color-in-svg" fill="#4D61FC" style="fill: rgb(77, 97, 252);"/>
<path opacity="0.6" d="M636.399 854.321C636.399 854.321 646.079 855.961 690.559 854.821C702.559 863.821 754.739 858.111 775.299 855.711C799.059 861.161 810.809 846.931 800.299 839.251C797.049 836.871 791.669 835.121 783.859 834.761C784.369 804.181 723.189 794.151 706.139 838.761C697.139 829.761 678.299 830.561 677.059 842.761C659.649 838.821 645.899 843.271 639.609 847.941C636.259 850.421 634.999 852.941 636.399 854.321Z" fill="white"/>
<path opacity="0.15" d="M636.4 854.32C636.4 854.32 646.08 855.96 690.56 854.82C702.56 863.82 754.74 858.11 775.3 855.71C799.06 861.16 810.81 846.93 800.3 839.25C800.396 841.107 799.88 842.945 798.83 844.48C796.42 847.89 791.88 849.3 787.73 848.87C783.58 848.44 779.73 846.42 776.29 844.11C774.63 843 772.93 841.78 770.95 841.54C767.43 841.12 764.39 843.87 761.95 846.41C760.919 844.352 759.191 842.728 757.074 841.826C754.957 840.924 752.588 840.803 750.39 841.485C748.192 842.167 746.308 843.608 745.074 845.55C743.839 847.493 743.335 849.81 743.65 852.09C735.14 850.21 726.46 855.24 717.79 854.44C707.89 853.52 698.97 845.13 689.27 847.26C686.81 847.8 684.54 848.99 682.08 849.5C679.637 849.855 677.161 849.936 674.7 849.74C666.78 849.56 658.85 850.82 650.94 850.32C647.054 850.135 643.219 849.353 639.57 848C636.26 850.42 635 852.94 636.4 854.32Z" class="change-color-in-svg" fill="#4D61FC" style="fill: rgb(77, 97, 252);"/>
<path d="M1127.84 515.329C1126.5 513.329 1123.46 511.329 1121.6 509.909C1120.93 509.409 1119.03 507.489 1118.2 507.579C1117.42 512.349 1117.35 517.209 1118 521.999C1118.2 523.529 1119.12 527.799 1120 528.999C1122.47 526.999 1122.81 521.509 1124.4 518.799C1125.06 517.629 1126.19 516.899 1127.84 515.329Z" class="change-color-in-svg" fill="#4D61FC" style="fill: rgb(77, 97, 252);"/>
<path d="M1157.69 514.55C1159.02 512.55 1162.07 510.55 1163.93 509.13C1164.59 508.63 1166.5 506.71 1167.33 506.8C1168.1 511.554 1168.17 516.398 1167.51 521.17C1167.32 522.7 1166.4 526.97 1165.51 528.17C1163.04 526.17 1162.7 520.68 1161.11 517.97C1160.47 516.85 1159.33 516.12 1157.69 514.55Z" class="change-color-in-svg" fill="#4D61FC" style="fill: rgb(77, 97, 252);"/>
<path opacity="0.2" d="M1127.84 515.329C1126.5 513.329 1123.46 511.329 1121.6 509.909C1120.93 509.409 1119.03 507.489 1118.2 507.579C1117.42 512.349 1117.35 517.209 1118 521.999C1118.2 523.529 1119.12 527.799 1120 528.999C1122.47 526.999 1122.81 521.509 1124.4 518.799C1125.06 517.629 1126.19 516.899 1127.84 515.329Z" fill="black"/>
<path opacity="0.2" d="M1157.69 514.55C1159.02 512.55 1162.07 510.55 1163.93 509.13C1164.59 508.63 1166.5 506.71 1167.33 506.8C1168.1 511.554 1168.17 516.398 1167.51 521.17C1167.32 522.7 1166.4 526.97 1165.51 528.17C1163.04 526.17 1162.7 520.68 1161.11 517.97C1160.47 516.85 1159.33 516.12 1157.69 514.55Z" fill="black"/>
<path d="M1160 516.09C1154.08 510.09 1135.12 508.19 1128.12 514.62C1123.59 518.665 1120.38 523.978 1118.91 529.87C1116.47 538.5 1116.28 547.14 1115.8 556.01C1115.41 563.13 1118 575.13 1122.22 579.82C1133.22 592.11 1142.33 592.91 1155.93 588.77C1159.68 587.63 1159.26 587.94 1161.83 585.46C1165.19 582.22 1169.05 575.99 1169.63 571.94C1170.7 564.43 1172.35 552.32 1171.25 544.78C1170.11 537.166 1167.88 529.757 1164.63 522.78C1163.71 520.78 1163.82 520.51 1162.44 518.96C1161.65 518 1158.64 514.11 1160 516.09Z" fill="#B2B6BB"/>
<path d="M1118 538.351C1115.8 536.451 1112.88 537.751 1111.21 539.741C1107.6 544.041 1107.53 552.061 1108.63 557.191C1109.99 563.488 1112.26 569.553 1115.38 575.191C1117.38 578.881 1119.73 584.351 1122.69 587.381C1123.87 576.641 1123.05 566.251 1122.34 555.501C1122.22 551.482 1121.66 547.488 1120.67 543.591C1120.07 541.461 1119.6 539.001 1118 538.351Z" class="change-color-in-svg" fill="#4D61FC" style="fill: rgb(77, 97, 252);"/>
<path d="M1136.52 515.8C1134.31 515.5 1130.52 517.8 1128.98 519.08C1127.3 520.742 1125.91 522.675 1124.87 524.8C1122.77 528.87 1122.31 533.592 1123.59 537.99C1125.53 543.7 1132.59 546.83 1138.11 545.81C1140.64 545.35 1142.76 545.47 1145.46 542.97C1147.21 541.35 1147.35 540.32 1147.35 540.32C1148.08 542.32 1151.63 544.92 1153.68 545.63C1156.88 546.74 1161.83 546.96 1164.32 543.81C1167.62 539.63 1167.18 537.04 1167.15 534.42C1167.15 530.68 1164.47 525.1 1162.28 522.11C1160.17 519.173 1157.11 517.054 1153.62 516.11C1151.04 515.45 1147.69 516.11 1145.11 516.24C1142.11 516.4 1139.5 515.24 1136.52 515.82C1135.03 516.12 1136.92 515.54 1135.65 516.27" fill="#DADDDF"/>
<path d="M1146 510.889C1150.33 511.409 1155 512.489 1158 514.619C1158.05 514.881 1158.01 515.152 1157.89 515.389C1156.74 518.963 1155.22 522.406 1153.35 525.659C1152.13 527.859 1150.92 530.089 1149.52 532.159C1149.05 532.859 1147.87 535.239 1147.15 535.539C1146.43 535.839 1145.57 534.809 1145.01 534.229C1143.32 532.459 1141.65 530.669 1139.9 528.949C1137.27 526.359 1134.76 523.399 1132.23 520.669C1130.96 519.299 1129.74 517.879 1128.52 516.469C1128.13 516.125 1127.82 515.698 1127.62 515.219C1127.62 515.219 1132.72 509.289 1146 510.889Z" class="change-color-in-svg" fill="#4D61FC" style="fill: rgb(77, 97, 252);"/>
<path opacity="0.2" d="M1118 538.351C1115.8 536.451 1112.88 537.751 1111.21 539.741C1107.6 544.041 1107.53 552.061 1108.63 557.191C1109.99 563.488 1112.26 569.553 1115.38 575.191C1117.38 578.881 1119.73 584.351 1122.69 587.381C1123.87 576.641 1123.05 566.251 1122.34 555.501C1122.22 551.482 1121.66 547.488 1120.67 543.591C1120.07 541.461 1119.6 539.001 1118 538.351Z" fill="black"/>
<path opacity="0.2" d="M1146 510.889C1150.33 511.409 1155 512.489 1158 514.619C1158.05 514.881 1158.01 515.152 1157.89 515.389C1156.74 518.963 1155.22 522.406 1153.35 525.659C1152.13 527.859 1150.92 530.089 1149.52 532.159C1149.05 532.859 1147.87 535.239 1147.15 535.539C1146.43 535.839 1145.57 534.809 1145.01 534.229C1143.32 532.459 1141.65 530.669 1139.9 528.949C1137.27 526.359 1134.76 523.399 1132.23 520.669C1130.96 519.299 1129.74 517.879 1128.52 516.469C1128.13 516.125 1127.82 515.698 1127.62 515.219C1127.62 515.219 1132.72 509.289 1146 510.889Z" fill="black"/>
<path d="M1133.31 539.63C1136.62 539.63 1139.31 536.617 1139.31 532.9C1139.31 529.183 1136.62 526.17 1133.31 526.17C1129.99 526.17 1127.31 529.183 1127.31 532.9C1127.31 536.617 1129.99 539.63 1133.31 539.63Z" class="change-color-in-svg" fill="#4D61FC" style="fill: rgb(77, 97, 252);"/>
<path opacity="0.2" d="M1133.31 539.63C1136.62 539.63 1139.31 536.617 1139.31 532.9C1139.31 529.183 1136.62 526.17 1133.31 526.17C1129.99 526.17 1127.31 529.183 1127.31 532.9C1127.31 536.617 1129.99 539.63 1133.31 539.63Z" fill="white"/>
<path d="M1133.31 537.259C1135.68 537.259 1137.61 535.101 1137.61 532.439C1137.61 529.777 1135.68 527.619 1133.31 527.619C1130.93 527.619 1129.01 529.777 1129.01 532.439C1129.01 535.101 1130.93 537.259 1133.31 537.259Z" class="change-color-in-svg" fill="#4D61FC" style="fill: rgb(77, 97, 252);"/>
<path d="M1136.23 532.19C1136.16 532.754 1135.94 533.287 1135.58 533.726C1135.22 534.164 1134.74 534.489 1134.2 534.661C1133.66 534.834 1133.08 534.846 1132.53 534.696C1131.98 534.546 1131.49 534.241 1131.11 533.818C1130.74 533.395 1130.49 532.871 1130.4 532.311C1130.31 531.75 1130.39 531.176 1130.62 530.658C1130.86 530.14 1131.23 529.7 1131.71 529.392C1132.19 529.084 1132.74 528.92 1133.31 528.92C1134.13 528.969 1134.9 529.34 1135.44 529.953C1135.99 530.566 1136.27 531.37 1136.23 532.19V532.19Z" fill="#21252B"/>
<path d="M1132.49 530.161C1132.45 530.496 1132.32 530.813 1132.1 531.074C1131.89 531.334 1131.6 531.527 1131.28 531.629C1130.96 531.731 1130.61 531.738 1130.29 531.649C1129.96 531.559 1129.67 531.378 1129.44 531.126C1129.22 530.874 1129.07 530.563 1129.02 530.229C1128.97 529.896 1129.01 529.554 1129.15 529.246C1129.29 528.938 1129.51 528.676 1129.8 528.493C1130.08 528.309 1130.41 528.211 1130.75 528.211C1131.24 528.242 1131.69 528.464 1132.02 528.829C1132.34 529.194 1132.51 529.672 1132.49 530.161Z" fill="white"/>
<path d="M1143.88 534.729C1145.67 534.729 1147.49 534.419 1149.27 534.529C1149.3 538.762 1148.62 542.969 1147.27 546.979C1147.16 546.24 1146.9 545.53 1146.51 544.889C1146.05 543.889 1145.66 542.949 1145.27 541.889C1144.41 539.329 1143.41 537.499 1143.88 534.729Z" fill="#21252B"/>
<g opacity="0.2">
<path opacity="0.2" d="M1133.56 555.14C1130.74 555.14 1127.74 554.74 1126.1 552.65C1126.05 552.584 1126.01 552.509 1125.98 552.428C1125.96 552.347 1125.95 552.263 1125.96 552.179C1125.97 552.095 1126 552.015 1126.04 551.941C1126.08 551.867 1126.13 551.802 1126.2 551.75C1126.33 551.646 1126.5 551.599 1126.67 551.617C1126.84 551.636 1126.99 551.719 1127.1 551.85C1128.91 554.15 1133.18 553.93 1136.29 553.77C1137.05 553.77 1137.77 553.7 1138.4 553.7C1138.48 553.7 1138.57 553.716 1138.64 553.748C1138.72 553.781 1138.79 553.828 1138.85 553.887C1138.91 553.947 1138.96 554.017 1138.99 554.095C1139.02 554.173 1139.04 554.256 1139.04 554.34C1139.04 554.424 1139.02 554.507 1138.99 554.585C1138.96 554.662 1138.91 554.733 1138.85 554.792C1138.79 554.852 1138.72 554.899 1138.64 554.931C1138.57 554.963 1138.48 554.98 1138.4 554.98C1137.8 554.98 1137.1 554.98 1136.4 555.05C1135.7 555.12 1134.53 555.14 1133.56 555.14Z" fill="black"/>
<path opacity="0.2" d="M1145.58 554.75C1144.87 554.75 1144.15 554.75 1143.43 554.66C1143.34 554.661 1143.25 554.643 1143.17 554.607C1143.09 554.572 1143.02 554.519 1142.96 554.454C1142.9 554.388 1142.85 554.311 1142.82 554.227C1142.79 554.143 1142.78 554.054 1142.79 553.965C1142.8 553.877 1142.82 553.791 1142.87 553.713C1142.91 553.635 1142.97 553.566 1143.04 553.512C1143.11 553.458 1143.19 553.419 1143.28 553.398C1143.36 553.377 1143.45 553.375 1143.54 553.39C1146.43 553.553 1149.34 553.378 1152.19 552.87C1152.36 552.845 1152.53 552.888 1152.67 552.989C1152.8 553.09 1152.89 553.242 1152.92 553.41C1152.95 553.579 1152.9 553.75 1152.8 553.887C1152.7 554.024 1152.55 554.115 1152.38 554.14C1150.13 554.508 1147.86 554.712 1145.58 554.75Z" fill="black"/>
<path opacity="0.2" d="M1157 553.94H1156.59C1156.43 553.92 1156.29 553.844 1156.18 553.725C1156.08 553.606 1156.02 553.453 1156.02 553.295C1156.02 553.136 1156.08 552.983 1156.18 552.865C1156.29 552.746 1156.43 552.669 1156.59 552.65C1160.39 552.766 1164.14 551.787 1167.4 549.83C1167.47 549.784 1167.55 549.753 1167.63 549.738C1167.71 549.724 1167.8 549.726 1167.88 549.744C1167.96 549.763 1168.04 549.798 1168.11 549.847C1168.18 549.896 1168.24 549.958 1168.28 550.03C1168.33 550.101 1168.36 550.18 1168.37 550.263C1168.39 550.346 1168.39 550.432 1168.37 550.514C1168.35 550.597 1168.32 550.676 1168.27 550.745C1168.22 550.815 1168.16 550.874 1168.09 550.92C1164.74 552.929 1160.9 553.975 1157 553.94V553.94Z" fill="black"/>
<path opacity="0.2" d="M1154 558.659C1153.41 558.678 1152.81 558.579 1152.26 558.369C1152.18 558.341 1152.1 558.296 1152.04 558.237C1151.97 558.178 1151.92 558.106 1151.88 558.027C1151.85 557.947 1151.83 557.861 1151.83 557.774C1151.83 557.686 1151.84 557.6 1151.88 557.519C1151.91 557.439 1151.96 557.366 1152.02 557.305C1152.09 557.244 1152.16 557.197 1152.24 557.166C1152.32 557.135 1152.41 557.121 1152.5 557.125C1152.58 557.129 1152.67 557.151 1152.75 557.189C1153.75 557.589 1155.37 557.279 1156.55 557.059L1156.9 556.989L1157.9 556.819C1159.12 556.66 1160.32 556.365 1161.47 555.939C1161.63 555.873 1161.8 555.872 1161.96 555.935C1162.12 555.999 1162.24 556.123 1162.31 556.279C1162.37 556.436 1162.38 556.612 1162.31 556.77C1162.25 556.927 1162.13 557.053 1161.97 557.119C1160.73 557.6 1159.44 557.936 1158.12 558.119L1157.18 558.279L1156.84 558.349C1155.9 558.538 1154.95 558.642 1154 558.659V558.659Z" fill="black"/>
<path opacity="0.2" d="M1141.57 559.829C1140.15 559.836 1138.75 559.634 1137.39 559.229C1137.23 559.179 1137.09 559.066 1137.01 558.915C1136.93 558.764 1136.91 558.587 1136.96 558.424C1137.01 558.261 1137.13 558.125 1137.28 558.045C1137.43 557.965 1137.61 557.949 1137.77 557.999C1139.55 558.514 1141.42 558.667 1143.26 558.449C1143.67 558.428 1144.08 558.428 1144.49 558.449C1145.09 558.503 1145.7 558.445 1146.29 558.279C1146.44 558.207 1146.62 558.2 1146.78 558.258C1146.94 558.316 1147.08 558.435 1147.15 558.589C1147.22 558.743 1147.23 558.919 1147.17 559.079C1147.11 559.238 1146.99 559.368 1146.84 559.439C1146.08 559.703 1145.28 559.805 1144.48 559.739C1144.12 559.713 1143.76 559.713 1143.4 559.739C1142.78 559.789 1142.17 559.829 1141.57 559.829Z" fill="black"/>
<path opacity="0.2" d="M1131 558.839C1128.65 558.916 1126.31 558.507 1124.12 557.639C1124.04 557.605 1123.97 557.556 1123.91 557.495C1123.85 557.433 1123.81 557.361 1123.78 557.282C1123.75 557.203 1123.73 557.119 1123.73 557.035C1123.74 556.95 1123.75 556.867 1123.79 556.789C1123.82 556.712 1123.87 556.642 1123.93 556.583C1123.99 556.525 1124.07 556.479 1124.15 556.448C1124.22 556.417 1124.31 556.403 1124.39 556.404C1124.48 556.406 1124.56 556.425 1124.64 556.459C1126.66 557.258 1128.83 557.633 1131.01 557.559C1131.18 557.559 1131.34 557.626 1131.46 557.746C1131.58 557.867 1131.65 558.029 1131.65 558.199C1131.65 558.37 1131.58 558.533 1131.46 558.652C1131.33 558.772 1131.17 558.839 1131 558.839V558.839Z" fill="black"/>
<path opacity="0.2" d="M1134 564.49C1132.56 564.546 1131.13 564.221 1129.86 563.55C1129.71 563.464 1129.61 563.325 1129.56 563.163C1129.52 563.001 1129.54 562.828 1129.62 562.68C1129.66 562.606 1129.71 562.541 1129.78 562.489C1129.85 562.437 1129.92 562.399 1130 562.376C1130.08 562.354 1130.17 562.348 1130.25 562.359C1130.34 562.37 1130.42 562.397 1130.49 562.44C1132.29 563.44 1134.49 563.24 1136.61 563.04C1137.43 562.96 1138.27 562.88 1139.07 562.88C1139.24 562.88 1139.4 562.947 1139.52 563.067C1139.64 563.187 1139.71 563.35 1139.71 563.52C1139.71 563.689 1139.64 563.852 1139.52 563.972C1139.4 564.092 1139.24 564.16 1139.07 564.16C1138.33 564.16 1137.55 564.24 1136.72 564.32C1135.89 564.4 1134.89 564.49 1134 564.49Z" fill="black"/>
<path opacity="0.2" d="M1146.56 564.579H1145.39C1145.22 564.579 1145.05 564.512 1144.93 564.392C1144.81 564.273 1144.74 564.11 1144.74 563.939C1144.74 563.768 1144.81 563.605 1144.93 563.483C1145.04 563.361 1145.21 563.292 1145.38 563.289H1146.15C1148.4 563.407 1150.65 563.205 1152.84 562.689C1153.04 562.62 1153.24 562.529 1153.42 562.419C1153.66 562.28 1153.91 562.163 1154.17 562.069C1154.33 562.016 1154.51 562.029 1154.66 562.106C1154.81 562.183 1154.93 562.317 1154.98 562.479C1155.03 562.641 1155.02 562.817 1154.94 562.969C1154.86 563.121 1154.73 563.236 1154.57 563.289C1154.38 563.361 1154.2 563.448 1154.03 563.549C1153.77 563.702 1153.49 563.826 1153.2 563.919C1151.03 564.447 1148.79 564.669 1146.56 564.579V564.579Z" fill="black"/>
<path opacity="0.2" d="M1160.14 562.61H1159.69C1159.6 562.607 1159.52 562.586 1159.44 562.549C1159.37 562.513 1159.3 562.461 1159.24 562.398C1159.19 562.334 1159.14 562.26 1159.12 562.18C1159.09 562.1 1159.08 562.015 1159.09 561.93C1159.09 561.846 1159.11 561.764 1159.15 561.688C1159.19 561.612 1159.24 561.545 1159.3 561.489C1159.37 561.433 1159.44 561.391 1159.52 561.363C1159.6 561.336 1159.68 561.325 1159.77 561.33C1161.74 561.324 1163.67 560.796 1165.37 559.8C1165.47 559.742 1165.57 559.675 1165.67 559.6C1165.93 559.404 1166.23 559.256 1166.55 559.16C1166.71 559.116 1166.89 559.14 1167.03 559.225C1167.18 559.311 1167.29 559.451 1167.33 559.615C1167.38 559.78 1167.35 559.955 1167.27 560.102C1167.18 560.249 1167.04 560.357 1166.88 560.4C1166.7 560.459 1166.54 560.551 1166.4 560.67L1165.98 560.93C1164.19 561.936 1162.19 562.511 1160.14 562.61V562.61Z" fill="black"/>
<path opacity="0.2" d="M1156.62 568.83C1155.69 568.83 1154.62 568.83 1153.33 568.76H1152.82C1152.74 568.758 1152.65 568.741 1152.58 568.707C1152.5 568.674 1152.43 568.626 1152.37 568.565C1152.31 568.505 1152.27 568.434 1152.23 568.355C1152.2 568.277 1152.19 568.194 1152.19 568.11C1152.19 567.939 1152.26 567.776 1152.38 567.657C1152.51 567.537 1152.67 567.47 1152.84 567.47H1153.37C1158.92 567.67 1160.47 567.38 1160.9 567.18C1160.92 567.036 1160.98 566.901 1161.08 566.799C1161.19 566.696 1161.32 566.632 1161.46 566.615C1161.61 566.599 1161.75 566.632 1161.88 566.709C1162 566.786 1162.09 566.903 1162.14 567.04C1162.19 567.183 1162.21 567.338 1162.19 567.49C1162.17 567.642 1162.11 567.787 1162.02 567.91C1161.62 568.46 1160.47 568.83 1156.62 568.83Z" fill="black"/>
<path opacity="0.2" d="M1141.93 569.18C1141.24 569.187 1140.54 569.143 1139.86 569.05C1139.77 569.04 1139.69 569.014 1139.62 568.972C1139.54 568.93 1139.48 568.874 1139.43 568.807C1139.38 568.74 1139.34 568.664 1139.32 568.582C1139.29 568.5 1139.29 568.414 1139.3 568.33C1139.33 568.162 1139.42 568.011 1139.55 567.908C1139.69 567.806 1139.86 567.76 1140.03 567.78C1141.33 567.917 1142.64 567.934 1143.94 567.83C1144.8 567.83 1145.7 567.75 1146.58 567.78C1146.66 567.781 1146.75 567.8 1146.83 567.834C1146.9 567.868 1146.97 567.917 1147.03 567.978C1147.09 568.04 1147.14 568.112 1147.17 568.191C1147.2 568.271 1147.21 568.355 1147.21 568.44C1147.2 568.609 1147.13 568.768 1147 568.884C1146.88 569 1146.72 569.063 1146.55 569.06C1145.71 569.06 1144.84 569.06 1144 569.11C1143.32 569.15 1142.63 569.18 1141.93 569.18Z" fill="black"/>
<path opacity="0.2" d="M1131.66 568.85C1129.4 568.953 1127.13 568.696 1124.95 568.09C1124.79 568.039 1124.65 567.925 1124.58 567.774C1124.5 567.623 1124.48 567.447 1124.53 567.285C1124.59 567.123 1124.7 566.989 1124.85 566.911C1125 566.833 1125.18 566.819 1125.34 566.87C1127.62 567.469 1129.98 567.705 1132.34 567.57H1132.98C1133.06 567.57 1133.15 567.587 1133.22 567.619C1133.3 567.651 1133.37 567.698 1133.43 567.758C1133.49 567.817 1133.54 567.888 1133.57 567.965C1133.6 568.043 1133.62 568.126 1133.62 568.21C1133.62 568.294 1133.6 568.378 1133.57 568.455C1133.54 568.533 1133.49 568.603 1133.43 568.663C1133.37 568.722 1133.3 568.769 1133.22 568.802C1133.15 568.834 1133.06 568.85 1132.98 568.85H1131.69H1131.66Z" fill="black"/>
<path opacity="0.2" d="M1142.86 574.691C1140.97 574.691 1139.06 574.641 1137.21 574.601C1135.03 574.54 1132.86 574.367 1130.7 574.081L1130.19 574.031C1129.61 574.022 1129.04 573.907 1128.5 573.691C1128.35 573.618 1128.23 573.487 1128.17 573.326C1128.11 573.166 1128.12 572.989 1128.19 572.836C1128.27 572.682 1128.4 572.563 1128.56 572.506C1128.72 572.449 1128.9 572.458 1129.05 572.531C1129.44 572.673 1129.86 572.748 1130.28 572.751C1130.49 572.751 1130.69 572.751 1130.87 572.811C1132.98 573.094 1135.11 573.264 1137.24 573.321C1139.1 573.321 1141.04 573.411 1142.94 573.411C1143.02 573.411 1143.11 573.427 1143.18 573.459C1143.26 573.492 1143.33 573.539 1143.39 573.598C1143.45 573.658 1143.5 573.728 1143.53 573.806C1143.56 573.883 1143.58 573.967 1143.58 574.051C1143.58 574.135 1143.56 574.218 1143.53 574.296C1143.5 574.373 1143.45 574.444 1143.39 574.503C1143.33 574.563 1143.26 574.61 1143.18 574.642C1143.11 574.674 1143.02 574.691 1142.94 574.691H1142.86Z" fill="black"/>
<path opacity="0.2" d="M1150 575.201C1148.61 575.201 1147.43 574.971 1147 574.201C1146.92 574.05 1146.9 573.874 1146.94 573.709C1146.99 573.544 1147.1 573.405 1147.25 573.321C1147.32 573.28 1147.4 573.254 1147.49 573.244C1147.57 573.235 1147.65 573.242 1147.74 573.265C1147.82 573.288 1147.89 573.327 1147.96 573.38C1148.02 573.432 1148.08 573.497 1148.12 573.571C1148.12 573.631 1148.57 574.191 1151.95 573.841C1152.54 573.767 1153.12 573.65 1153.69 573.49C1154.21 573.347 1154.74 573.23 1155.28 573.141C1155.36 573.129 1155.45 573.135 1155.53 573.156C1155.61 573.178 1155.69 573.215 1155.75 573.266C1155.82 573.317 1155.88 573.381 1155.92 573.454C1155.96 573.527 1155.99 573.607 1156 573.69C1156.01 573.773 1156.01 573.858 1155.99 573.939C1155.97 574.021 1155.93 574.097 1155.88 574.164C1155.83 574.231 1155.77 574.287 1155.69 574.33C1155.62 574.372 1155.54 574.399 1155.46 574.41C1154.97 574.492 1154.49 574.598 1154.01 574.73C1153.39 574.908 1152.75 575.039 1152.11 575.12C1151.41 575.15 1150.7 575.201 1150 575.201Z" fill="black"/>
<path opacity="0.2" d="M1161.06 574.29H1160.75C1160.59 574.262 1160.45 574.174 1160.35 574.045C1160.25 573.916 1160.21 573.755 1160.22 573.594C1160.24 573.433 1160.32 573.285 1160.44 573.178C1160.56 573.072 1160.72 573.015 1160.88 573.02C1161.73 572.979 1162.56 572.735 1163.3 572.31L1163.88 572.05L1164.53 571.8C1165.1 571.631 1165.65 571.382 1166.15 571.06C1166.18 570.984 1166.23 570.916 1166.29 570.859C1166.36 570.803 1166.43 570.759 1166.51 570.731C1166.58 570.703 1166.67 570.692 1166.75 570.696C1166.83 570.701 1166.91 570.723 1166.99 570.76C1167.14 570.837 1167.26 570.971 1167.32 571.133C1167.38 571.295 1167.37 571.473 1167.3 571.63C1167.02 572.23 1166.16 572.58 1164.96 573.01L1164.38 573.23L1163.83 573.48C1162.97 573.942 1162.03 574.218 1161.06 574.29Z" fill="black"/>
<path opacity="0.2" d="M1154 579.909H1153.58C1153.41 579.904 1153.25 579.832 1153.13 579.708C1153.01 579.585 1152.95 579.42 1152.95 579.249C1152.95 579.165 1152.97 579.081 1153 579.004C1153.04 578.927 1153.09 578.857 1153.15 578.799C1153.21 578.741 1153.28 578.696 1153.36 578.667C1153.44 578.638 1153.52 578.625 1153.61 578.629C1156.15 578.685 1158.68 578.261 1161.07 577.379C1161.36 577.29 1161.62 577.116 1161.81 576.879C1161.92 576.749 1162.07 576.665 1162.24 576.647C1162.41 576.628 1162.58 576.675 1162.71 576.779C1162.84 576.888 1162.92 577.044 1162.94 577.214C1162.96 577.384 1162.91 577.554 1162.81 577.689C1162.48 578.093 1162.04 578.398 1161.55 578.569C1159.13 579.468 1156.58 579.922 1154 579.909V579.909Z" fill="black"/>
<path opacity="0.2" d="M1142.45 579.999C1141.31 580.044 1140.17 579.839 1139.12 579.399C1139.04 579.364 1138.97 579.314 1138.92 579.252C1138.86 579.19 1138.82 579.117 1138.79 579.038C1138.76 578.958 1138.75 578.874 1138.76 578.791C1138.76 578.707 1138.78 578.625 1138.82 578.549C1138.89 578.396 1139.02 578.277 1139.18 578.218C1139.34 578.16 1139.51 578.168 1139.67 578.239C1141.04 578.889 1142.91 578.739 1144.67 578.599C1145.42 578.539 1146.15 578.489 1146.8 578.489C1147.29 578.506 1147.78 578.479 1148.26 578.409C1148.42 578.364 1148.6 578.386 1148.75 578.471C1148.9 578.555 1149 578.695 1149.05 578.859C1149.09 579.024 1149.07 579.199 1148.99 579.348C1148.9 579.496 1148.76 579.604 1148.6 579.649C1148.01 579.759 1147.4 579.799 1146.8 579.769C1146.19 579.769 1145.5 579.829 1144.8 579.879C1144.1 579.929 1143.24 579.999 1142.45 579.999Z" fill="black"/>
<path opacity="0.2" d="M1136.13 580.221C1133 580.111 1129.9 579.614 1126.89 578.741C1126.72 578.698 1126.58 578.592 1126.5 578.446C1126.41 578.3 1126.39 578.125 1126.43 577.961C1126.47 577.796 1126.58 577.656 1126.72 577.569C1126.87 577.483 1127.04 577.458 1127.21 577.501C1130.11 578.341 1133.11 578.824 1136.13 578.941C1136.21 578.941 1136.3 578.957 1136.37 578.989C1136.45 579.022 1136.52 579.069 1136.58 579.128C1136.64 579.188 1136.69 579.258 1136.72 579.336C1136.75 579.414 1136.77 579.497 1136.77 579.581C1136.77 579.665 1136.75 579.748 1136.72 579.826C1136.69 579.903 1136.64 579.974 1136.58 580.033C1136.52 580.093 1136.45 580.14 1136.37 580.172C1136.3 580.204 1136.21 580.221 1136.13 580.221Z" fill="black"/>
<path opacity="0.2" d="M1139.3 585.46C1137.73 585.46 1135.12 585.249 1134.86 583.869C1134.83 583.701 1134.87 583.528 1134.97 583.388C1135.06 583.248 1135.21 583.151 1135.38 583.119C1135.54 583.09 1135.71 583.126 1135.85 583.219C1135.99 583.312 1136.09 583.456 1136.12 583.619C1136.44 584.059 1138.99 584.27 1140.37 584.14L1141.43 584.03C1142.26 583.92 1143.09 583.856 1143.93 583.84V583.84C1144.1 583.839 1144.26 583.907 1144.39 584.026C1144.51 584.146 1144.58 584.309 1144.58 584.479C1144.58 584.564 1144.56 584.647 1144.53 584.724C1144.5 584.802 1144.45 584.873 1144.39 584.932C1144.33 584.991 1144.26 585.039 1144.18 585.071C1144.11 585.103 1144.02 585.119 1143.94 585.119C1143.15 585.138 1142.36 585.202 1141.58 585.309L1140.49 585.419C1140.49 585.419 1140 585.46 1139.3 585.46Z" fill="black"/>
<path opacity="0.2" d="M1148.55 585H1147.81C1147.64 584.992 1147.48 584.917 1147.37 584.792C1147.25 584.666 1147.19 584.5 1147.2 584.33C1147.21 584.161 1147.28 584.001 1147.41 583.887C1147.53 583.772 1147.7 583.712 1147.87 583.72C1149.4 583.744 1150.93 583.644 1152.45 583.42C1153.17 583.34 1153.92 583.25 1154.65 583.19C1155.17 583.159 1155.68 583.065 1156.17 582.91C1156.25 582.884 1156.34 582.874 1156.42 582.881C1156.51 582.888 1156.59 582.912 1156.66 582.951C1156.74 582.99 1156.81 583.044 1156.86 583.109C1156.91 583.174 1156.95 583.249 1156.98 583.33C1157.01 583.411 1157.02 583.495 1157.01 583.579C1157 583.663 1156.98 583.745 1156.94 583.819C1156.9 583.894 1156.85 583.96 1156.78 584.013C1156.72 584.067 1156.64 584.107 1156.56 584.13C1155.98 584.314 1155.37 584.428 1154.76 584.47C1154.05 584.53 1153.31 584.61 1152.6 584.7C1151.26 584.876 1149.9 584.976 1148.55 585V585Z" fill="black"/>
</g>
<path d="M1168.2 538.3C1170.3 536.3 1173.28 537.471 1175.05 539.391C1178.87 543.521 1179.35 551.531 1178.51 556.701C1177.47 563.04 1175.51 569.192 1172.69 574.961C1170.87 578.731 1168.81 584.311 1166 587.461C1164.28 576.791 1164.57 566.37 1164.74 555.61C1164.63 551.586 1164.97 547.562 1165.74 543.61C1166.27 541.5 1166.62 539 1168.2 538.3Z" class="change-color-in-svg" fill="#4D61FC" style="fill: rgb(77, 97, 252);"/>
<path d="M1158.11 539.63C1161.42 539.63 1164.11 536.617 1164.11 532.9C1164.11 529.183 1161.42 526.17 1158.11 526.17C1154.8 526.17 1152.11 529.183 1152.11 532.9C1152.11 536.617 1154.8 539.63 1158.11 539.63Z" class="change-color-in-svg" fill="#4D61FC" style="fill: rgb(77, 97, 252);"/>
<path opacity="0.2" d="M1158.11 539.63C1161.42 539.63 1164.11 536.617 1164.11 532.9C1164.11 529.183 1161.42 526.17 1158.11 526.17C1154.8 526.17 1152.11 529.183 1152.11 532.9C1152.11 536.617 1154.8 539.63 1158.11 539.63Z" fill="white"/>
<path d="M1158.11 537.259C1160.48 537.259 1162.41 535.101 1162.41 532.439C1162.41 529.777 1160.48 527.619 1158.11 527.619C1155.73 527.619 1153.81 529.777 1153.81 532.439C1153.81 535.101 1155.73 537.259 1158.11 537.259Z" class="change-color-in-svg" fill="#4D61FC" style="fill: rgb(77, 97, 252);"/>
<path d="M1161 532.19C1160.94 532.754 1160.71 533.287 1160.35 533.726C1159.99 534.164 1159.51 534.489 1158.97 534.661C1158.43 534.834 1157.85 534.846 1157.3 534.696C1156.76 534.546 1156.26 534.241 1155.89 533.818C1155.51 533.395 1155.26 532.871 1155.17 532.311C1155.09 531.75 1155.16 531.176 1155.4 530.658C1155.63 530.14 1156 529.7 1156.48 529.392C1156.96 529.084 1157.51 528.92 1158.08 528.92C1158.9 528.971 1159.66 529.344 1160.21 529.956C1160.76 530.568 1161.04 531.37 1161 532.19V532.19Z" fill="#21252B"/>
<path d="M1157.29 530.161C1157.25 530.496 1157.12 530.813 1156.9 531.074C1156.69 531.334 1156.4 531.527 1156.08 531.629C1155.76 531.731 1155.41 531.738 1155.09 531.649C1154.76 531.559 1154.47 531.378 1154.25 531.126C1154.02 530.874 1153.87 530.563 1153.82 530.229C1153.77 529.896 1153.82 529.554 1153.95 529.246C1154.09 528.938 1154.32 528.676 1154.6 528.493C1154.88 528.309 1155.21 528.211 1155.55 528.211C1156.04 528.242 1156.49 528.464 1156.82 528.829C1157.15 529.194 1157.31 529.672 1157.29 530.161Z" fill="white"/>
<path d="M1137.1 590.52C1137.23 589.43 1136.68 588.35 1135.71 588.43C1134.11 588.57 1134.53 591.33 1134.51 592.63C1134.57 594.088 1134.91 595.52 1135.51 596.85C1135.68 597.817 1136.14 598.711 1136.82 599.42C1137.25 597.91 1138.74 588.77 1136.05 588.42" fill="#21252B"/>
<path d="M1140.28 590.52C1140.4 589.43 1139.86 588.35 1138.88 588.43C1137.28 588.57 1137.71 591.33 1137.69 592.63C1137.75 594.087 1138.09 595.518 1138.69 596.85C1138.87 597.818 1139.33 598.712 1140.01 599.42C1140.44 597.91 1141.93 588.77 1139.24 588.42" fill="#21252B"/>
<path d="M1134.78 590.69C1135.02 589.62 1134.6 588.48 1133.62 588.43C1132.02 588.34 1132.15 591.14 1131.98 592.43C1131.9 593.895 1132.09 595.363 1132.54 596.76C1132.6 597.744 1132.95 598.688 1133.54 599.48C1134.13 598.05 1136.6 589.17 1133.97 588.48" fill="#21252B"/>
<path d="M1153.07 590.491C1153.2 589.401 1152.65 588.321 1151.68 588.401C1150.08 588.531 1150.51 591.301 1150.48 592.601C1150.54 594.058 1150.88 595.489 1151.48 596.821C1151.65 597.784 1152.11 598.674 1152.79 599.381C1153.22 597.881 1154.71 588.731 1152.03 588.381" fill="#21252B"/>
<path d="M1156.25 590.491C1156.37 589.401 1155.83 588.321 1154.85 588.401C1153.26 588.531 1153.68 591.301 1153.66 592.601C1153.72 594.058 1154.06 595.491 1154.66 596.821C1154.83 597.786 1155.29 598.678 1155.97 599.381C1156.4 597.881 1157.89 588.731 1155.2 588.381" fill="#21252B"/>
<path d="M1150.75 590.661C1150.99 589.591 1150.57 588.451 1149.59 588.401C1147.99 588.311 1148.12 591.111 1147.95 592.401C1147.87 593.867 1148.06 595.336 1148.52 596.731C1148.58 597.715 1148.93 598.659 1149.52 599.451C1150.11 598.011 1152.58 589.141 1149.95 588.451" fill="#21252B"/>
<path opacity="0.2" d="M1168.2 538.3C1170.3 536.3 1173.28 537.471 1175.05 539.391C1178.87 543.521 1179.35 551.531 1178.51 556.701C1177.47 563.04 1175.51 569.192 1172.69 574.961C1170.87 578.731 1168.81 584.311 1166 587.461C1164.28 576.791 1164.57 566.37 1164.74 555.61C1164.63 551.586 1164.97 547.562 1165.74 543.61C1166.27 541.5 1166.62 539 1168.2 538.3Z" fill="black"/>
</svg>